<svg width="20" height="27" viewBox="0 0 20 27" fill="none" xmlns="http://www.w3.org/2000/svg">
<path d="M19.5803 14.6064L12.4374 22.5283C12.1606 22.8402 11.7946 22.9937 11.4285 22.9937C11.0624 22.9937 10.6973 22.839 10.4187 22.5295C9.86064 21.9106 9.86064 20.908 10.4187 20.2891L15.1249 15.0718H1.4285C0.639661 15.0718 0 14.3638 0 13.4874C0 12.611 0.639661 11.903 1.4285 11.903H15.1249L10.4196 6.68445C9.86154 6.06555 9.86154 5.06293 10.4196 4.44403C10.9776 3.82513 11.8816 3.82513 12.4397 4.44403L19.5825 12.3659C20.1383 12.9873 20.1383 13.9875 19.5803 14.6064Z" fill="#33B249"/>
</svg>
