<svg width="23" height="18" viewBox="0 0 23 18" fill="none" xmlns="http://www.w3.org/2000/svg">
<path d="M21.4283 9.83689C21.4283 6.46967 19.0655 3.59109 16.0936 2.38272L14.0912 5.80771V1.10939C14.0912 0.736684 13.7893 0.437988 13.4109 0.437988H9.87994C9.50162 0.437988 9.19973 0.736684 9.19973 1.10939V5.80695L7.19731 2.38385C4.22539 3.59109 1.8626 6.46854 1.8626 9.83689L1.86222 12.5217H21.4279L21.4283 9.83689ZM22.6015 14.0964C22.5059 13.8736 22.2843 13.7301 22.0397 13.7301H1.25118C1.00756 13.7301 0.78649 13.8741 0.689809 14.0947C0.593088 14.3166 0.638449 14.5739 0.80682 14.7495C0.908432 14.8554 3.39194 17.3552 11.611 17.3552C19.8302 17.3552 22.3149 14.8558 22.4486 14.7497C22.6511 14.5722 22.697 14.3154 22.6015 14.0964Z" fill="white"/>
</svg>
