<svg width="32" height="32" viewBox="0 0 32 32" fill="none" xmlns="http://www.w3.org/2000/svg">
<rect width="32" height="32" fill="white"/>
<g clip-path="url(#clip0_262_22)">
<path d="M9.34485 15.9424L21.3371 5.19439C21.8578 4.75295 22.1019 4.44587 22.1019 4.29232C22.1019 4.17717 22.0205 4.11959 21.8415 4.0812C21.6788 4.06201 21.451 4.04282 21.1581 4.04282V3.8125H28.1875V4.04282C27.7318 4.04282 27.3251 4.11959 26.9671 4.27313C26.6091 4.42667 26.2674 4.6186 25.9419 4.86811C25.6165 5.09842 25.0308 5.55905 24.1521 6.25C23.6964 6.63386 23.2246 7.01771 22.769 7.40158C22.7201 7.43996 22.6713 7.47834 22.6225 7.49754L11.9646 17.0556L22.6551 26.4793C23.6964 27.4198 24.8029 27.8996 25.9419 27.9379V28.1875H21.4835V27.9379C22.0367 27.9379 22.3134 27.842 22.3134 27.6309C22.3134 27.4965 22.1995 27.3046 21.9554 27.0935L9.40993 15.9808L9.34485 15.9424Z" fill="black"/>
<path d="M9.3286 3.8125V4.06201C9.00316 4.02362 8.67773 4.10039 8.30348 4.25394C7.94551 4.40748 7.76651 4.77215 7.76651 5.34793C7.75024 5.48228 7.73397 5.88533 7.73397 6.59547V25.3085C7.73397 26.0763 7.75025 26.6329 7.79906 26.9783C7.84788 27.3238 7.97805 27.5733 8.20585 27.7268C8.43365 27.8996 8.8079 27.9764 9.31232 27.9572V28.1875H3.8125V27.9572C4.30065 27.9379 4.65863 27.8612 4.87016 27.7268C5.08169 27.5925 5.21186 27.3622 5.27695 27.0359C5.32576 26.7096 5.35831 26.153 5.35831 25.3469V6.80659C5.35831 6.07726 5.34204 5.52066 5.29322 5.156C5.24441 4.79133 5.11423 4.50345 4.88643 4.31152C4.65863 4.11959 4.30065 4.02362 3.8125 4.06201V3.8125H9.3286Z" fill="#334E92"/>
</g>
<defs>
<clipPath id="clip0_262_22">
<rect width="26" height="26" fill="white" transform="translate(3 3)"/>
</clipPath>
</defs>
</svg>
