<svg width="196" height="63" viewBox="0 0 196 63" fill="none" xmlns="http://www.w3.org/2000/svg">
<path d="M9.36929 18.0438L29.6786 2.52225C30.5604 1.88475 30.9738 1.44128 30.9738 1.21954C30.9738 1.05324 30.836 0.970088 30.5328 0.914654C30.2573 0.886936 29.8715 0.85922 29.3755 0.85922V0.526611H41.28V0.85922C40.5084 0.85922 39.8195 0.970088 39.2132 1.19182C38.607 1.41356 38.0283 1.69073 37.4771 2.05105C36.926 2.38366 35.934 3.04887 34.4459 4.04669C33.6743 4.60103 32.8752 5.15537 32.1036 5.70972C32.0209 5.76515 31.9382 5.82058 31.8556 5.8483L13.8059 19.6514L31.9107 33.2605C33.6743 34.6187 35.5482 35.3116 37.4771 35.367V35.7274H29.9266V35.367C30.8635 35.367 31.332 35.2284 31.332 34.9236C31.332 34.7295 31.1391 34.4524 30.7257 34.1475L9.47951 18.0993L9.36929 18.0438Z" fill="black"/>
<path d="M77.0486 15.7433C77.0486 18.4319 76.6077 21.0373 75.7534 23.5041C74.8716 25.9987 73.5764 28.1883 71.8679 30.1285C70.1594 32.0687 68.0375 33.5654 65.5574 34.6464C63.0773 35.7274 60.2941 36.2817 57.2629 36.2817C54.8103 36.2817 52.5507 35.8659 50.539 35.0067C48.4998 34.1475 46.7362 32.9557 45.2757 31.4312C43.7876 29.9068 42.6578 28.1606 41.9138 26.1927C41.1422 24.2525 40.7564 22.2014 40.7564 20.0395C40.7564 17.7667 41.1697 15.4662 41.9964 13.1102C42.8231 10.7542 44.0356 8.56459 45.689 6.59667C47.3149 4.62876 49.3816 3.04888 51.8617 1.82933C54.3418 0.609778 57.1802 0 60.3768 0C62.8844 0 65.1716 0.415755 67.2384 1.21955C69.2776 2.02335 71.0688 3.15975 72.5568 4.60104C74.0449 6.07005 75.1747 7.73308 75.9463 9.64556C76.6628 11.5303 77.0486 13.5814 77.0486 15.7433ZM74.844 20.0672C74.844 17.3232 74.2654 14.8287 73.1355 12.5559C72.0057 10.2831 70.5176 8.37057 68.6989 6.79069C66.8802 5.21082 64.9236 3.99127 62.8293 3.13204C60.735 2.2728 58.806 1.85705 57.0424 1.85705C54.8654 1.85705 52.716 2.43911 50.5666 3.60323C48.4447 4.76734 46.7086 6.40265 45.3584 8.50915C44.0081 10.6157 43.3467 12.9993 43.3467 15.6047C43.3467 18.8476 44.1459 21.8965 45.7166 24.8068C47.2873 27.6894 49.3816 30.0176 51.9444 31.7915C54.5347 33.5654 57.2629 34.4247 60.1288 34.4247C61.9751 34.4247 63.7662 34.0643 65.5574 33.2883C67.3486 32.5399 68.9193 31.5144 70.2972 30.2394C71.6475 28.9644 72.7497 27.4399 73.5764 25.6383C74.4307 23.8644 74.844 22.0074 74.844 20.0672Z" fill="black"/>
<path d="M80.5207 0.886935V0.526611H96.5863C100.692 0.526611 103.834 0.831503 105.983 1.41356C108.133 1.99562 109.924 2.79942 111.412 3.76952C112.707 4.60103 113.864 5.682 114.912 7.01242C115.931 8.31512 116.758 9.83956 117.309 11.558C117.888 13.2765 118.163 15.1058 118.163 17.0737C118.163 18.9308 117.915 20.677 117.392 22.3677C116.896 24.0585 116.179 25.6383 115.27 27.1073C114.36 28.5763 113.368 29.879 112.266 30.9323C111.164 32.0133 110.006 32.9002 108.739 33.6486C107.444 34.4246 105.873 34.9513 103.999 35.2562C102.153 35.5611 99.7829 35.6996 96.8894 35.6996H80.438V35.367H80.879C81.4301 35.367 81.8434 35.2284 82.1466 34.9513C82.4497 34.6741 82.6426 34.2029 82.7804 33.5654C82.9182 32.9002 82.9733 31.9024 82.9733 30.572V4.93364C82.9733 3.21517 82.8355 2.10649 82.5875 1.6353C82.3946 1.13639 81.6781 0.886935 80.5207 0.886935ZM92.4252 1.24726H87.0517V28.5486C87.0517 30.0176 87.2721 31.2095 87.7406 32.0964C88.1815 32.9834 89.0909 33.6486 90.4687 34.092C91.819 34.5355 93.8582 34.785 96.5312 34.785C98.5704 34.785 100.362 34.6464 101.905 34.3415C103.475 34.0643 104.853 33.6209 106.066 33.0388C107.278 32.4567 108.381 31.6807 109.4 30.7106C110.861 29.297 112.073 27.4954 112.955 25.278C113.864 23.0606 114.305 20.8433 114.305 18.6259C114.305 17.1569 114.085 15.6602 113.671 14.1357C113.258 12.639 112.597 11.17 111.687 9.7287C110.806 8.28741 109.566 6.95699 108.022 5.70972C106.479 4.46245 104.633 3.46463 102.483 2.74398C99.7002 1.74616 96.3383 1.24726 92.4252 1.24726Z" fill="black"/>
<path d="M151.755 2.30052L153.05 6.01461H152.719C152.003 5.29397 151.121 4.57333 150.074 3.82496C149.027 3.0766 147.676 2.41139 146.078 1.82933C144.452 1.24727 142.689 0.94238 140.76 0.94238C137.37 0.94238 134.477 1.66303 132.052 3.0766C129.627 4.49017 127.836 6.3195 126.623 8.56459C125.411 10.782 124.804 13.1379 124.804 15.577C124.804 17.3232 125.135 19.3188 125.796 21.5916C126.458 23.8644 127.505 26.0541 128.965 28.1329C130.398 30.2117 132.327 31.9578 134.697 33.316C137.067 34.6741 139.905 35.367 143.185 35.367C145.83 35.367 148.42 34.9236 150.928 34.0643C153.463 33.2051 155.337 32.0687 156.55 30.6551L156.853 30.7383L154.4 34.5078C150.845 35.2839 148.42 35.7828 147.18 35.9768C145.94 36.1708 144.177 36.2817 141.945 36.2817C139.657 36.2817 137.591 36.1154 135.8 35.8105C133.981 35.5056 132.465 35.0622 131.198 34.5078C129.93 33.9535 128.8 33.316 127.836 32.5953C125.907 31.154 124.363 29.2138 123.206 26.8025C122.049 24.3633 121.47 21.7302 121.47 18.9031C121.47 16.6026 121.883 14.3298 122.738 12.0847C123.592 9.83958 124.859 7.81623 126.54 5.9869C128.221 4.15757 130.343 2.71628 132.878 1.63531C135.414 0.554341 138.252 0 141.421 0C143.433 0 145.196 0.194022 146.712 0.582061C148.228 0.970101 149.771 1.49673 151.369 2.16194C151.397 2.16194 151.479 2.18965 151.562 2.21737C151.672 2.21737 151.727 2.24509 151.755 2.30052Z" fill="black"/>
<path d="M195.184 15.7433C195.184 18.4319 194.743 21.0373 193.889 23.5041C193.007 25.9987 191.712 28.1883 190.004 30.1285C188.295 32.0687 186.173 33.5654 183.693 34.6464C181.213 35.7274 178.43 36.2817 175.399 36.2817C172.946 36.2817 170.686 35.8659 168.675 35.0067C166.663 34.1475 164.872 32.9557 163.411 31.4312C161.923 29.9068 160.793 28.1606 160.049 26.1927C159.278 24.2525 158.892 22.2014 158.892 20.0395C158.892 17.7667 159.305 15.4662 160.132 13.1102C160.959 10.7542 162.171 8.56459 163.825 6.59667C165.451 4.62876 167.517 3.04888 169.997 1.82933C172.477 0.609778 175.316 0 178.512 0C181.02 0 183.307 0.415755 185.374 1.21955C187.413 2.02335 189.204 3.15975 190.692 4.60104C192.181 6.07005 193.31 7.73308 194.082 9.64556C194.798 11.5303 195.184 13.5814 195.184 15.7433ZM193.007 20.0672C193.007 17.3232 192.429 14.8287 191.299 12.5559C190.169 10.2831 188.681 8.37057 186.862 6.79069C185.043 5.21082 183.087 3.99127 180.993 3.13204C178.898 2.2728 176.969 1.85705 175.206 1.85705C173.029 1.85705 170.879 2.43911 168.73 3.60323C166.608 4.76734 164.872 6.40265 163.522 8.50915C162.171 10.6157 161.51 12.9993 161.51 15.6047C161.51 18.8476 162.309 21.8965 163.88 24.8068C165.451 27.6894 167.545 30.0176 170.108 31.7915C172.698 33.5654 175.426 34.4247 178.292 34.4247C180.138 34.4247 181.929 34.0643 183.721 33.2883C185.512 32.5399 187.083 31.5144 188.46 30.2394C189.811 28.9644 190.913 27.4399 191.74 25.6383C192.594 23.8644 193.007 22.0074 193.007 20.0672Z" fill="black"/>
<path d="M9.34173 0.526611V0.886935C8.79059 0.831501 8.23946 0.942369 7.60565 1.16411C6.99941 1.38584 6.69628 1.91247 6.69628 2.74398C6.66872 2.938 6.64117 3.52006 6.64117 4.54559V31.5698C6.64117 32.6785 6.66873 33.4823 6.7514 33.9812C6.83407 34.4801 7.05452 34.8404 7.44031 35.0621C7.82611 35.3116 8.45991 35.4225 9.31417 35.3948V35.7274H0V35.3948C0.826702 35.367 1.43295 35.2562 1.79119 35.0621C2.14942 34.8681 2.36988 34.5355 2.4801 34.0643C2.56277 33.5931 2.61789 32.7893 2.61789 31.6252V4.85048C2.61789 3.79723 2.59033 2.99343 2.50766 2.46681C2.42499 1.94018 2.20454 1.52443 1.81874 1.24726C1.43295 0.970087 0.826702 0.831501 0 0.886935V0.526611H9.34173Z" fill="#334E92"/>
<path d="M12.0147 51.4436L11.2983 52.4415C10.0306 51.2496 8.62525 50.6676 7.02696 50.6676C5.97981 50.6676 5.01532 50.917 4.10595 51.4436C3.19658 51.9425 2.4801 52.6355 1.98408 53.5224C1.46051 54.3817 1.2125 55.324 1.2125 56.3219C1.2125 57.2088 1.40539 58.0126 1.79119 58.7055C2.17698 59.3985 2.75567 59.9251 3.4997 60.3408C4.24373 60.7289 5.09799 60.9229 6.06248 60.9229C7.52298 60.9229 8.90082 60.4517 10.1409 59.537L10.8022 60.4794C9.8653 61.0892 9.06616 61.505 8.37724 61.7267C7.68832 61.9484 6.91674 62.0593 6.03492 62.0593C4.40907 62.0593 3.0588 61.6435 2.0392 60.812C0.661362 59.7033 0 58.2343 0 56.3773C0 54.4648 0.688918 52.8572 2.0392 51.5268C3.41703 50.1964 5.09799 49.5312 7.13719 49.5312C8.07412 49.5312 8.90082 49.6697 9.67241 49.9746C10.444 50.2518 11.2156 50.7507 12.0147 51.4436Z" fill="#2D4B80"/>
<path d="M18.215 52.6909C18.959 52.6909 19.6479 52.8572 20.2542 53.2175C20.888 53.5779 21.3565 54.0768 21.7147 54.7143C22.0729 55.3518 22.2383 56.0724 22.2383 56.8762C22.2383 57.7909 22.0178 58.6501 21.5769 59.4539C21.136 60.23 20.5298 60.8675 19.7857 61.2832C19.0417 61.7267 18.1874 61.9207 17.2505 61.9207C16.0656 61.9207 15.1011 61.5327 14.3571 60.7566C13.5855 59.9805 13.2272 59.0104 13.2272 57.7909C13.2272 56.8485 13.4477 55.9893 13.8886 55.1855C14.3295 54.3817 14.9357 53.7719 15.7073 53.3284C16.4514 52.9127 17.3056 52.6909 18.215 52.6909ZM18.1874 53.7719C17.4985 53.7719 16.8372 53.9382 16.2309 54.2985C15.6247 54.6588 15.1562 55.13 14.8255 55.7398C14.4948 56.3496 14.3295 57.0148 14.3295 57.7632C14.3295 58.6778 14.6051 59.4539 15.1838 60.036C15.7624 60.618 16.4789 60.8952 17.3883 60.8952C18.1048 60.8952 18.7386 60.7289 19.2897 60.3963C19.8684 60.0637 20.3093 59.5648 20.6675 58.9273C20.9982 58.2898 21.1636 57.5968 21.1636 56.8762C21.1636 56.2664 21.0258 55.7398 20.7778 55.2686C20.5298 54.7974 20.1715 54.4371 19.7031 54.1599C19.2346 53.8828 18.711 53.7719 18.1874 53.7719Z" fill="#2D4B80"/>
<path d="M25.0215 52.9127H26.0962L25.9033 54.2708C26.7851 53.2175 27.8323 52.6632 29.0172 52.6632C29.9266 52.6632 30.6431 52.9404 31.1942 53.4947C31.7453 54.0491 32.0209 54.7974 32.0209 55.7398C32.0209 56.1278 31.9658 56.7376 31.828 57.6523L31.2769 61.699H30.1746L30.7257 57.6523C30.836 56.7931 30.8911 56.1556 30.8911 55.7398C30.8911 55.13 30.6982 54.6311 30.3399 54.2431C29.9817 53.855 29.4857 53.6887 28.8794 53.6887C28.3007 53.6887 27.7496 53.855 27.226 54.1599C26.73 54.4648 26.3167 54.8806 26.0411 55.4072C25.7655 55.9338 25.5451 56.7653 25.4073 57.9017L24.9113 61.699H23.809L25.0215 52.9127Z" fill="#2D4B80"/>
<path d="M39.1305 53.9105L38.5243 54.8251C38.0283 54.1322 37.4496 53.7719 36.7607 53.7719C36.3749 53.7719 36.0442 53.9105 35.7686 54.1599C35.493 54.4094 35.3553 54.6865 35.3553 54.9914C35.3553 55.2409 35.4379 55.4626 35.6033 55.6566C35.7686 55.8784 36.1269 56.1555 36.7055 56.5436C37.5322 57.0979 38.0834 57.5691 38.3589 57.9571C38.6345 58.3729 38.7447 58.8441 38.7447 59.3707C38.7447 60.1191 38.4967 60.7289 37.9732 61.2001C37.4496 61.699 36.7882 61.9207 35.9615 61.9207C34.8868 61.9207 33.9774 61.4495 33.2334 60.4794L33.9223 59.6756C34.5837 60.4794 35.2726 60.8674 36.0442 60.8674C36.4851 60.8674 36.8433 60.7011 37.174 60.3963C37.5047 60.0914 37.67 59.7311 37.67 59.3153C37.67 58.9827 37.5598 58.6778 37.3118 58.3729C37.1465 58.1789 36.7331 57.8463 36.0442 57.3751C35.3002 56.8762 34.8317 56.4604 34.5837 56.1001C34.3632 55.7675 34.2254 55.4072 34.2254 54.9914C34.2254 54.3262 34.4735 53.7719 34.9695 53.3284C35.4655 52.8572 36.0717 52.6355 36.8158 52.6355C37.2567 52.6355 37.6425 52.7186 38.0007 52.9126C38.4141 53.1344 38.7723 53.4393 39.1305 53.9105Z" fill="#2D4B80"/>
<path d="M42.8507 49.6143H43.953L43.512 52.9127H45.2757L45.1379 53.9105H43.3743L42.3271 61.7267H41.1973L42.2444 53.9105H40.7564L40.8942 52.9127H42.3822L42.8507 49.6143Z" fill="#2D4B80"/>
<path d="M46.5984 52.9127H47.7282L47.5629 54.0213C47.866 53.6056 48.2242 53.273 48.6376 53.0512C49.051 52.8295 49.4919 52.6909 49.9328 52.6909C50.2359 52.6909 50.5666 52.7741 50.9248 52.9127L50.4012 53.9382C50.1257 53.8273 49.8776 53.7719 49.7123 53.7719C49.3265 53.7719 48.9407 53.9105 48.5549 54.1876C48.1691 54.4648 47.866 54.8529 47.618 55.3795C47.37 55.9061 47.1771 56.7653 47.0118 57.9849L46.4882 61.699H45.3859L46.5984 52.9127Z" fill="#2D4B80"/>
<path d="M52.5231 52.9126H53.6529L53.1294 56.599C52.964 57.68 52.9089 58.3729 52.9089 58.6501C52.9089 59.3153 53.1018 59.8419 53.5151 60.2577C53.9285 60.6734 54.4796 60.8674 55.141 60.8674C55.6921 60.8674 56.1881 60.7011 56.6015 60.3963C57.0148 60.0637 57.318 59.6479 57.4833 59.1213C57.566 58.8441 57.6762 58.262 57.7864 57.2919L58.3651 52.8849H59.4674L59.054 56.211C58.8611 57.7908 58.6407 58.9272 58.4202 59.6202C58.1998 60.2854 57.7864 60.8397 57.2077 61.2832C56.6291 61.7267 55.9126 61.9207 55.0859 61.9207C54.1214 61.9207 53.3498 61.6158 52.7436 60.9783C52.1373 60.3685 51.8342 59.5647 51.8342 58.6501C51.8342 58.2898 51.8617 57.8463 51.9444 57.3474L52.0271 56.5713L52.0822 56.2387L52.5231 52.9126Z" fill="#2D4B80"/>
<path d="M70.1318 54.7974L69.1949 55.3518C68.5336 54.2985 67.5691 53.7719 66.2188 53.7719C65.4472 53.7719 64.7307 53.9382 64.0969 54.2985C63.4631 54.6588 62.9671 55.13 62.6089 55.7398C62.2506 56.3496 62.0577 57.0148 62.0577 57.7077C62.0577 58.3175 62.1955 58.8718 62.4711 59.3707C62.7466 59.8697 63.1049 60.23 63.6009 60.5071C64.0969 60.7843 64.6481 60.8952 65.3094 60.8952C65.9708 60.8952 66.6321 60.7566 67.2384 60.4794C67.8446 60.2023 68.3407 59.8697 68.6713 59.4262L69.6083 60.0914C69.0296 60.7289 68.3958 61.2001 67.7344 61.4772C67.0455 61.7821 66.2739 61.9207 65.3645 61.9207C63.9867 61.9207 62.912 61.5327 62.1404 60.7843C61.3688 60.036 60.983 59.0104 60.983 57.7632C60.983 56.3496 61.479 55.1577 62.4986 54.1599C63.5182 53.1621 64.7583 52.6632 66.2463 52.6632C67.1282 52.6632 67.8997 52.8572 68.5887 53.2176C69.2776 53.5779 69.7736 54.1322 70.1318 54.7974Z" fill="#2D4B80"/>
<path d="M74.0449 49.6143H75.1472L74.7063 52.9127H76.4699L76.3321 53.9105H74.5685L73.5213 61.7267H72.3915L73.4387 53.9105H71.9506L72.0884 52.9127H73.5764L74.0449 49.6143Z" fill="#2D4B80"/>
<path d="M78.0131 52.9127H79.0878L77.958 61.699H76.8557L78.0131 52.9127ZM78.8949 49.2817C79.1429 49.2817 79.3633 49.3649 79.5287 49.5589C79.694 49.7252 79.8043 49.9469 79.8043 50.1964C79.8043 50.4458 79.7216 50.6676 79.5287 50.8339C79.3633 51.0002 79.1429 51.0833 78.8949 51.0833C78.6469 51.0833 78.4264 51.0002 78.2611 50.8339C78.0957 50.6676 78.0131 50.4458 78.0131 50.1964C78.0131 49.9469 78.0957 49.7252 78.2611 49.5589C78.4264 49.3649 78.6469 49.2817 78.8949 49.2817Z" fill="#2D4B80"/>
<path d="M85.4809 52.6909C86.225 52.6909 86.9139 52.8572 87.5201 53.2175C88.1539 53.5779 88.6224 54.0768 88.9806 54.7143C89.3389 55.3518 89.5042 56.0724 89.5042 56.8762C89.5042 57.7909 89.2838 58.6501 88.8428 59.4539C88.4019 60.23 87.7957 60.8675 87.0517 61.2832C86.3076 61.7267 85.4534 61.9207 84.5164 61.9207C83.3315 61.9207 82.367 61.5327 81.623 60.7566C80.8514 59.9805 80.4932 59.0104 80.4932 57.7909C80.4932 56.8485 80.7136 55.9893 81.1545 55.1855C81.5954 54.3817 82.2017 53.7719 82.9733 53.3284C83.7449 52.9127 84.5716 52.6909 85.4809 52.6909ZM85.4534 53.7719C84.7645 53.7719 84.1031 53.9382 83.4968 54.2985C82.8906 54.6588 82.4221 55.13 82.0915 55.7398C81.7608 56.3496 81.5954 57.0148 81.5954 57.7632C81.5954 58.6778 81.871 59.4539 82.4497 60.036C83.0284 60.618 83.7449 60.8952 84.6542 60.8952C85.3707 60.8952 86.0045 60.7289 86.5556 60.3963C87.1343 60.0637 87.5752 59.5648 87.9335 58.9273C88.2642 58.2898 88.4295 57.5968 88.4295 56.8762C88.4295 56.2664 88.2917 55.7398 88.0437 55.2686C87.7957 54.7974 87.4375 54.4371 86.969 54.1599C86.5005 53.8828 86.0045 53.7719 85.4534 53.7719Z" fill="#2D4B80"/>
<path d="M92.315 52.9127H93.3897L93.1968 54.2708C94.0786 53.2175 95.1258 52.6632 96.3107 52.6632C97.2201 52.6632 97.9366 52.9404 98.4877 53.4947C99.0388 54.0491 99.3144 54.7974 99.3144 55.7398C99.3144 56.1278 99.2593 56.7376 99.1215 57.6523L98.5704 61.699H97.4681L98.0192 57.6523C98.1295 56.7931 98.1846 56.1556 98.1846 55.7398C98.1846 55.13 97.9917 54.6311 97.6335 54.2431C97.2752 53.855 96.7792 53.6887 96.1729 53.6887C95.5943 53.6887 95.0431 53.855 94.5195 54.1599C94.0235 54.4648 93.6102 54.8806 93.3346 55.4072C93.059 55.9338 92.8386 56.7653 92.7008 57.9017L92.2048 61.699H91.1025L92.315 52.9127Z" fill="#2D4B80"/>
</svg>
