<svg width="23" height="18" viewBox="0 0 23 18" fill="none" xmlns="http://www.w3.org/2000/svg">
<path d="M20.5876 0.76416C21.7269 0.76416 22.6512 1.6771 22.6512 2.80329C22.6512 3.44477 22.3459 4.04802 21.8257 4.4346L12.4709 11.3677C11.9808 11.7288 11.3101 11.7288 10.82 11.3677L1.4652 4.4346C0.945565 4.04802 0.639771 3.44477 0.639771 2.80329C0.639771 1.6771 1.56365 0.76416 2.70334 0.76416H20.5876ZM9.99461 12.4552C10.9748 13.1816 12.3161 13.1816 13.2963 12.4552L22.6512 5.52214V14.3584C22.6512 15.858 21.4173 17.0772 19.8997 17.0772H3.39119C1.87146 17.0772 0.639771 15.858 0.639771 14.3584V5.52214L9.99461 12.4552Z" fill="white"/>
</svg>
