<svg width="23" height="23" viewBox="0 0 23 23" fill="none" xmlns="http://www.w3.org/2000/svg">
<path d="M22.6168 17.2904L21.6172 21.5726C21.4768 22.1779 20.9384 22.6015 20.3077 22.6015C9.46152 22.6006 0.639771 13.8833 0.639771 3.16513C0.639771 2.54234 1.06835 2.00962 1.68101 1.87155L6.0145 0.883845C6.64561 0.739321 7.29048 1.06303 7.55272 1.65362L9.55266 6.26291C9.78645 6.80583 9.62876 7.43839 9.1666 7.81138L6.85197 9.64787C8.3128 12.5885 10.7323 14.9794 13.709 16.4237L15.6041 14.1382C15.9776 13.6803 16.6225 13.5218 17.172 13.7569L21.8365 15.7328C22.3975 16.0244 22.7629 16.6701 22.6168 17.2904Z" fill="white"/>
</svg>
