
        <svg xmlns="http://www.w3.org/2000/svg" xmlns:xlink="http://www.w3.org/1999/xlink" version="1.1" width="2370.4716628458855" 
        height="3278.8790191583394" viewBox="0 0 2370.4716628458855 3278.8790191583394">
			
			<g transform="scale(13.943950957916975) translate(10, 10)">
				<defs id="SvgjsDefs1036"></defs><g id="SvgjsG1037" featureKey="Wg4LIr-0" transform="matrix(9.237875451453572,0,0,9.237875451453572,38.53348729410656,-43.849881088043304)" fill="#ffffff"><path d="M0.7 11.98 l2.98 0 l0.02 0 c1.84 0 1.84 -2.8 0 -2.8 l-0.02 0 l-2.98 0 l0 -2.16 l0 0 l2.94 0 c4.74 0 4.74 7.14 0 7.14 l-0.86 0 l0 5.84 l-2.08 0 l0 0 l0 -8.02 l0 0 z"></path></g><g id="SvgjsG1038" featureKey="qafomr-0" transform="matrix(3.9390754408439457,0,0,3.9390754408439457,-4.7268907168424885,136.36554735493633)" fill="#ffffff"><path d="M6.18 6 c3.14 0 5.22 1.9 5.22 4.82 c0 2.88 -2.08 4.6 -5.22 4.6 l-1.76 0 l0 4.58 l-3.22 0 l0 -14 l4.98 0 z M5.98 12.68 c1.3 0 2.2 -0.46 2.2 -1.86 c0 -1.38 -0.9 -1.86 -2.2 -1.86 l-1.56 0 l0 3.72 l1.56 0 z M24.06 6 l3.42 0 l-6.22 14 l-2.94 0 l-6.22 -14 l3.42 0 l4.28 10.1 z M34.06 6 c3.14 0 5.22 1.9 5.22 4.82 c0 2.88 -2.08 4.6 -5.22 4.6 l-1.76 0 l0 4.58 l-3.22 0 l0 -14 l4.98 0 z M33.86 12.68 c1.3 0 2.2 -0.46 2.2 -1.86 c0 -1.38 -0.9 -1.86 -2.2 -1.86 l-1.56 0 l0 3.72 l1.56 0 z"></path></g>
			</g>
		</svg>
	