<svg width="145" height="131" viewBox="0 0 145 131" fill="none" xmlns="http://www.w3.org/2000/svg">
<g clip-path="url(#clip0_149_373)" filter="url(#filter0_d_149_373)">
<path d="M112.909 8.64676V21.0765L130.41 32.3172V9.40333L112.909 8.64676ZM138.102 47.7733C137.99 47.6652 137.879 47.6652 137.879 47.5571L73.6704 0.43234C72.8901 -0.216166 71.6639 -0.108075 70.9951 0.540431L6.89825 47.7733C6.78677 47.8814 6.6753 47.9895 6.56382 48.0975C4.78026 50.0431 3.88848 52.6371 4.11143 55.2311C4.2229 56.6362 4.78026 57.9332 5.78352 59.1221C6.6753 60.203 7.9015 61.0677 9.35064 61.5C11.4686 62.1485 13.6981 62.0404 15.7046 61.1757V119.541C15.7046 120.622 16.5964 121.595 17.8226 121.595H126.843C127.958 121.595 128.961 120.73 128.961 119.541V61.2838C131.079 62.3647 133.531 62.4727 135.761 61.7161C138.325 60.8515 140.22 58.6898 140.888 56.2039C141.446 53.1775 140.443 49.935 138.102 47.7733ZM122.83 58.906V115.758H21.6126V59.014C21.6126 58.7979 21.6126 58.6898 21.5012 58.4736L72.6672 20.6441L122.83 58.4736C122.83 58.6898 122.83 58.7979 122.83 58.906ZM72.4442 37.6133C67.6509 37.6133 63.192 39.4508 59.8478 42.6933C56.5036 45.7197 54.6086 49.935 54.6086 54.3664V68.5255H90.3913V54.3664C90.3913 49.935 88.4963 45.7197 85.1521 42.6933C81.8079 39.4508 77.2375 37.6133 72.4442 37.6133ZM70.9951 65.4991H57.7298V57.3928H70.9951V65.4991ZM70.9951 54.3664L57.7298 54.2583C57.7298 50.6915 59.2904 47.2329 62.0773 44.7469C64.4182 42.3691 67.6509 40.9639 70.9951 40.6397V54.3664ZM87.2701 65.4991H74.0048V57.3928H87.2701V65.4991ZM74.1163 40.7478C77.4605 41.1801 80.5817 42.5852 83.0341 44.855C84.3718 46.0439 85.4865 47.5571 86.2668 49.1784C87.0471 50.7996 87.3816 52.529 87.3816 54.3664H74.1163V40.7478C74.0048 40.7478 74.0048 40.7478 74.1163 40.7478ZM85.1521 42.6933C81.8079 39.4508 77.2375 37.6133 72.5557 37.6133C67.7624 37.6133 63.3034 39.4508 59.9593 42.6933C56.6151 45.7197 54.72 49.935 54.72 54.3664V68.5255H90.5028V54.3664C90.3913 49.935 88.4963 45.7197 85.1521 42.6933ZM70.9951 65.4991H57.7298V57.3928H70.9951V65.4991ZM70.9951 54.3664L57.7298 54.2583C57.7298 50.6915 59.2904 47.2329 62.0773 44.7469C64.4182 42.3691 67.6509 40.9639 70.9951 40.6397V54.3664ZM87.2701 65.4991H74.0048V57.3928H87.2701V65.4991ZM74.1163 54.3664V40.7478C77.4605 41.072 80.5817 42.5852 83.0341 44.855C84.3718 46.0439 85.4865 47.5571 86.2668 49.1784C87.0471 50.7996 87.3816 52.529 87.3816 54.3664H74.1163Z" fill="#3D5BA9"/>
<path d="M72.6672 20.6441L21.5012 58.4736C21.5012 58.6898 21.6127 58.7979 21.6127 59.014V115.758H122.83V58.906C122.83 58.7979 122.83 58.6898 122.83 58.4736L72.6672 20.6441ZM90.3914 68.5255H54.6086V54.3664C54.6086 49.935 56.5037 45.7197 59.8479 42.6933C63.192 39.4508 67.7624 37.6134 72.4443 37.6134C77.2376 37.6134 81.6965 39.4508 85.0407 42.6933C88.3849 45.7197 90.2799 49.935 90.2799 54.3664V68.5255H90.3914Z" fill="#669CFF"/>
<path d="M110.679 103.545C101.65 93.3849 90.6143 105.923 103.991 112.516C98.4174 115.11 93.1782 113.381 89.7225 109.165C89.2766 110.354 88.7192 111.543 87.9389 112.732L87.716 113.164C88.4963 113.38 89.0537 114.137 89.0537 114.894V121.271C89.0537 122.243 88.1619 123.108 87.1586 123.108H60.2937C59.2904 123.108 58.3987 122.243 58.3987 121.271V114.894C58.3987 113.921 59.179 113.164 60.1822 113.056L50.93 98.3568C50.1497 97.384 49.5923 96.4113 49.0349 95.3304C48.5891 94.3576 48.3661 93.3849 48.2546 92.4121C48.2546 91.9798 48.2546 91.6556 48.2546 91.3313C44.6875 92.0879 41.1204 92.0879 37.5533 88.6292C35.1009 86.0352 33.8747 82.5764 34.0976 79.0097C43.1269 89.1696 54.1627 76.6318 40.786 70.0387C47.3629 67.1204 53.3824 69.8225 56.6151 75.6591C58.1757 78.3612 59.0675 79.8743 60.1822 80.739C60.4052 80.9552 60.6281 81.0633 60.8511 81.2794C61.297 79.8743 62.3002 78.7935 63.6379 78.0369C64.4182 77.7127 65.1985 77.4965 66.0903 77.4965C68.4312 77.4965 71.441 78.9016 71.8869 81.1714C71.8869 81.1714 71.9983 81.1714 72.1098 81.1714C72.2213 81.1714 72.2213 81.1714 72.2213 81.1714H73.8934C74.0048 81.1714 74.1163 81.1714 74.2278 81.1714C76.1228 81.2794 77.572 82.6845 77.9064 84.522C78.1293 84.4139 78.3523 84.4139 78.4638 84.4139H80.1358C80.2473 84.4139 80.3588 84.4139 80.4703 84.4139C82.4768 84.6301 84.0374 86.1433 84.2603 88.0888H86.1554C86.2668 88.0888 86.3783 88.0888 86.4898 88.0888C89.2766 88.5211 90.3913 90.2505 90.8372 92.4121C95.965 91.6556 101.65 88.7373 107.112 94.1415C109.788 96.6274 110.902 100.086 110.679 103.545Z" fill="#385AB0"/>
<path d="M60.5167 91.0071V92.196L59.5134 91.4394L57.7299 90.0343C58.2872 90.2505 58.8446 90.3586 59.4019 90.5747C59.6249 90.6828 59.9593 90.7909 60.5167 91.0071Z" fill="#669CFF"/>
<path d="M88.7192 92.6283V98.0325L87.9389 102.14V106.139C87.3816 107.544 86.7127 108.841 85.8209 110.138L84.8177 111.759V111.867C84.5947 112.3 84.2603 112.732 83.9259 113.164H63.0805C62.8576 112.516 62.7461 111.867 62.7461 111.219C62.7461 111.003 62.6346 110.786 62.5231 110.678L53.048 97.0598C53.048 97.0598 53.048 96.9517 52.9365 96.9517C52.2676 96.1951 51.7103 95.3304 51.2644 94.3577C50.93 93.7092 50.707 92.9526 50.707 92.3041C50.707 91.7636 50.707 91.3313 50.8185 90.899H50.93C51.0415 90.6828 51.2644 90.4666 51.4874 90.3585C51.8218 90.2504 52.2677 90.2504 52.6021 90.3585H53.3824C53.8283 90.5747 54.1627 90.7909 54.4971 91.007L57.9528 93.6011L60.4052 95.5466L60.6281 95.6547V97.9244C60.6281 98.5729 61.1855 99.1134 61.8543 99.1134C62.5231 99.1134 63.0805 98.5729 63.0805 97.9244V82.5765C63.3035 81.7118 63.9723 80.8471 64.7526 80.4148C65.1985 80.1986 65.6444 80.0905 66.0903 80.0905C67.7624 80.0905 69.4345 80.8471 69.4345 82.4684V88.413C69.4345 89.0615 69.9918 89.602 70.6607 89.602C71.3295 89.602 71.8869 89.0615 71.8869 88.413V83.8735C71.9983 83.8735 72.1098 83.8735 72.2213 83.8735H73.8934C75.5655 84.1977 75.7884 86.0352 75.6769 88.0888V89.8181C75.5655 90.5747 75.5655 91.3313 75.5655 91.8717C75.5655 92.5202 76.1228 93.0606 76.7917 93.0606C77.4605 93.0606 78.0179 92.5202 78.0179 91.8717C78.0179 91.2232 78.1293 90.5747 78.1293 89.9262V87.116H80.0244C80.8047 87.2241 81.2506 87.7645 81.4735 88.413C81.6965 89.0615 81.8079 89.9262 81.8079 90.7909V91.6556C81.6965 92.4121 81.6965 93.1687 81.6965 93.7092C81.6965 94.3577 82.2538 94.8981 82.9227 94.8981C83.5915 94.8981 84.1489 94.3577 84.1489 93.7092C84.1489 93.0606 84.2603 92.4122 84.2603 91.7636V90.7909H86.2668C87.716 90.6828 88.4963 91.5475 88.7192 92.6283Z" fill="white"/>
</g>
<defs>
<filter id="filter0_d_149_373" x="0" y="0" width="145" height="131" filterUnits="userSpaceOnUse" color-interpolation-filters="sRGB">
<feFlood flood-opacity="0" result="BackgroundImageFix"/>
<feColorMatrix in="SourceAlpha" type="matrix" values="0 0 0 0 0 0 0 0 0 0 0 0 0 0 0 0 0 0 127 0" result="hardAlpha"/>
<feOffset dy="4"/>
<feGaussianBlur stdDeviation="2"/>
<feComposite in2="hardAlpha" operator="out"/>
<feColorMatrix type="matrix" values="0 0 0 0 0 0 0 0 0 0 0 0 0 0 0 0 0 0 0.25 0"/>
<feBlend mode="normal" in2="BackgroundImageFix" result="effect1_dropShadow_149_373"/>
<feBlend mode="normal" in="SourceGraphic" in2="effect1_dropShadow_149_373" result="shape"/>
</filter>
<clipPath id="clip0_149_373">
<rect width="137" height="123" fill="white" transform="translate(4)"/>
</clipPath>
</defs>
</svg>
