<svg width="139" height="119" viewBox="0 0 139 119" fill="none" xmlns="http://www.w3.org/2000/svg">
<g style="mix-blend-mode:hard-light">
<g filter="url(#filter0_d_149_321)">
<path d="M14.2455 0C8.58912 0 4 4.59764 4 10.2693V99.2697C4 104.939 8.58912 109.539 14.2455 109.539H34.7364V92.4235C34.7364 86.754 39.3256 82.1542 44.9819 82.1542C50.6383 82.1542 55.2274 86.754 55.2274 92.4235V109.539H75.7184C81.3769 109.539 85.9638 104.939 85.9638 99.2697V10.2693C85.9638 4.59764 81.3769 0 75.7184 0L14.2455 0ZM72.3032 58.1926C72.3032 60.0753 70.7749 61.6157 68.888 61.6157H62.0577C60.1794 61.6157 58.6426 60.0753 58.6426 58.1926V51.3464C58.6426 49.4637 60.1794 47.9233 62.0577 47.9233H68.888C70.7749 47.9233 72.3032 49.4637 72.3032 51.3464V58.1926ZM48.3971 47.9233C50.2754 47.9233 51.8122 49.4637 51.8122 51.3464V58.1926C51.8122 60.0753 50.2754 61.6157 48.3971 61.6157H41.5668C39.6884 61.6157 38.1516 60.0753 38.1516 58.1926V51.3464C38.1516 49.4637 39.6884 47.9233 41.5668 47.9233H48.3971ZM31.3213 58.1926C31.3213 60.0753 29.7845 61.6157 27.9061 61.6157H21.0758C19.1975 61.6157 17.6606 60.0753 17.6606 58.1926V51.3464C17.6606 49.4637 19.1975 47.9233 21.0758 47.9233H27.9061C29.7845 47.9233 31.3213 49.4637 31.3213 51.3464V58.1926ZM68.888 20.5386C70.7749 20.5386 72.3032 22.079 72.3032 23.9617V30.8078C72.3032 32.6905 70.7749 34.2309 68.888 34.2309H62.0577C60.1794 34.2309 58.6426 32.6905 58.6426 30.8078V23.9617C58.6426 22.079 60.1794 20.5386 62.0577 20.5386H68.888ZM51.8122 30.8078C51.8122 32.6905 50.2754 34.2309 48.3971 34.2309H41.5668C39.6884 34.2309 38.1516 32.6905 38.1516 30.8078V23.9617C38.1516 22.079 39.6884 20.5386 41.5668 20.5386H48.3971C50.2754 20.5386 51.8122 22.079 51.8122 23.9617V30.8078ZM27.9061 20.5386C29.7845 20.5386 31.3213 22.079 31.3213 23.9617V30.8078C31.3213 32.6905 29.7845 34.2309 27.9061 34.2309H21.0758C19.1975 34.2309 17.6606 32.6905 17.6606 30.8078V23.9617C17.6606 22.079 19.1975 20.5386 21.0758 20.5386H27.9061Z" fill="#1C2D58"/>
<path d="M14.2455 0.5C8.86629 0.5 4.5 4.87276 4.5 10.2693V99.2697C4.5 104.664 8.86636 109.039 14.2455 109.039H34.2364V92.4235C34.2364 86.479 39.0483 81.6542 44.9819 81.6542C50.9155 81.6542 55.7274 86.479 55.7274 92.4235V109.039H75.7184C81.0995 109.039 85.4638 104.664 85.4638 99.2697V10.2693C85.4638 4.87269 81.0996 0.5 75.7184 0.5L14.2455 0.5ZM72.8032 58.1926C72.8032 60.3495 71.053 62.1157 68.888 62.1157H62.0577C59.9021 62.1157 58.1426 60.3503 58.1426 58.1926V51.3464C58.1426 49.1886 59.9021 47.4233 62.0577 47.4233H68.888C71.053 47.4233 72.8032 49.1895 72.8032 51.3464V58.1926ZM48.3971 47.4233C50.5527 47.4233 52.3122 49.1886 52.3122 51.3464V58.1926C52.3122 60.3503 50.5527 62.1157 48.3971 62.1157H41.5668C39.4112 62.1157 37.6516 60.3503 37.6516 58.1926V51.3464C37.6516 49.1886 39.4112 47.4233 41.5668 47.4233H48.3971ZM31.8213 58.1926C31.8213 60.3503 30.0617 62.1157 27.9061 62.1157H21.0758C18.9202 62.1157 17.1606 60.3503 17.1606 58.1926V51.3464C17.1606 49.1886 18.9202 47.4233 21.0758 47.4233H27.9061C30.0617 47.4233 31.8213 49.1886 31.8213 51.3464V58.1926ZM68.888 20.0386C71.053 20.0386 72.8032 21.8047 72.8032 23.9617V30.8078C72.8032 32.9648 71.053 34.7309 68.888 34.7309H62.0577C59.9021 34.7309 58.1426 32.9656 58.1426 30.8078V23.9617C58.1426 21.8039 59.9021 20.0386 62.0577 20.0386H68.888ZM52.3122 30.8078C52.3122 32.9656 50.5526 34.7309 48.3971 34.7309H41.5668C39.4112 34.7309 37.6516 32.9656 37.6516 30.8078V23.9617C37.6516 21.8039 39.4112 20.0386 41.5668 20.0386H48.3971C50.5527 20.0386 52.3122 21.8039 52.3122 23.9617V30.8078ZM27.9061 20.0386C30.0617 20.0386 31.8213 21.8039 31.8213 23.9617V30.8078C31.8213 32.9656 30.0617 34.7309 27.9061 34.7309H21.0758C18.9202 34.7309 17.1606 32.9656 17.1606 30.8078V23.9617C17.1606 21.8039 18.9202 20.0386 21.0758 20.0386H27.9061Z" stroke="white"/>
</g>
<g filter="url(#filter1_d_149_321)">
<path d="M133.977 76.7415C133.977 79.0755 132.013 80.9037 129.788 80.9037H125.598L125.69 101.663C125.703 106.266 121.946 110 117.312 110H75.3665C70.7387 110 66.9867 106.279 66.9867 101.702V80.9037H62.7922C60.4318 80.9037 58.5964 79.0755 58.5964 76.7415C58.5964 75.5746 58.9896 74.5373 59.9068 73.6296L93.472 44.6521C94.3884 43.7427 95.4357 43.6127 96.3521 43.6127C97.2685 43.6127 98.3158 43.8726 99.1144 44.5222L113.057 56.6698V51.9111C113.057 49.62 114.929 47.7619 117.246 47.7619H121.435C123.753 47.7619 125.625 49.62 125.625 51.9111V67.6003L132.537 73.6296C133.584 74.5373 134.121 75.5746 133.977 76.7415ZM91.0632 68.508C89.322 68.508 87.9212 69.8953 87.9212 71.6199V81.9929C87.9212 83.7174 89.322 85.1048 91.0632 85.1048H101.536C103.277 85.1048 104.678 83.7174 104.678 81.9929V71.6199C104.678 69.8953 103.277 68.508 101.536 68.508H91.0632Z" fill="#334E93"/>
<path d="M126.19 101.661L126.19 101.66L126.101 81.4037H129.788C132.267 81.4037 134.46 79.3799 134.477 76.772C134.635 75.3989 133.982 74.2201 132.864 73.2518L126.125 67.373V51.9111C126.125 49.3396 124.024 47.2619 121.435 47.2619H117.246C114.657 47.2619 112.557 49.3396 112.557 51.9111V55.571L99.4429 44.1452L99.4365 44.1396L99.4299 44.1343C98.5197 43.3939 97.3507 43.1127 96.3521 43.1127C95.3896 43.1127 94.185 43.2486 93.1325 44.2847L59.5801 73.2512L59.5672 73.2623L59.5551 73.2742C58.5401 74.2787 58.0964 75.4452 58.0964 76.7415C58.0964 79.3548 60.1589 81.4037 62.7922 81.4037H66.4867V101.702C66.4867 106.559 70.4669 110.5 75.3665 110.5H117.312C122.219 110.5 126.204 106.545 126.19 101.661ZM88.4212 71.6199C88.4212 70.176 89.5936 69.008 91.0632 69.008H101.536C103.006 69.008 104.178 70.176 104.178 71.6199V81.9929C104.178 83.4367 103.006 84.6048 101.536 84.6048H91.0632C89.5936 84.6048 88.4212 83.4367 88.4212 81.9929V71.6199Z" stroke="white"/>
</g>
</g>
<defs>
<filter id="filter0_d_149_321" x="0" y="0" width="89.9638" height="117.539" filterUnits="userSpaceOnUse" color-interpolation-filters="sRGB">
<feFlood flood-opacity="0" result="BackgroundImageFix"/>
<feColorMatrix in="SourceAlpha" type="matrix" values="0 0 0 0 0 0 0 0 0 0 0 0 0 0 0 0 0 0 127 0" result="hardAlpha"/>
<feOffset dy="4"/>
<feGaussianBlur stdDeviation="2"/>
<feComposite in2="hardAlpha" operator="out"/>
<feColorMatrix type="matrix" values="0 0 0 0 0 0 0 0 0 0 0 0 0 0 0 0 0 0 0.25 0"/>
<feBlend mode="normal" in2="BackgroundImageFix" result="effect1_dropShadow_149_321"/>
<feBlend mode="normal" in="SourceGraphic" in2="effect1_dropShadow_149_321" result="shape"/>
</filter>
<filter id="filter1_d_149_321" x="53.5964" y="42.6127" width="85.404" height="76.3873" filterUnits="userSpaceOnUse" color-interpolation-filters="sRGB">
<feFlood flood-opacity="0" result="BackgroundImageFix"/>
<feColorMatrix in="SourceAlpha" type="matrix" values="0 0 0 0 0 0 0 0 0 0 0 0 0 0 0 0 0 0 127 0" result="hardAlpha"/>
<feOffset dy="4"/>
<feGaussianBlur stdDeviation="2"/>
<feComposite in2="hardAlpha" operator="out"/>
<feColorMatrix type="matrix" values="0 0 0 0 0 0 0 0 0 0 0 0 0 0 0 0 0 0 0.25 0"/>
<feBlend mode="normal" in2="BackgroundImageFix" result="effect1_dropShadow_149_321"/>
<feBlend mode="normal" in="SourceGraphic" in2="effect1_dropShadow_149_321" result="shape"/>
</filter>
</defs>
</svg>
