<svg width="108" height="110" viewBox="0 0 108 110" fill="none" xmlns="http://www.w3.org/2000/svg">
<g clip-path="url(#clip0_149_329)">
<g filter="url(#filter0_d_149_329)">
<path d="M4.65521 21.1748V41.1732V56.3286V109.914H13.9656H105.207V41.1732V21.1748H4.65521Z" fill="#ACC9FF"/>
<path d="M60.5173 55.1599H8.37933V98.5853H60.5173V55.1599Z" fill="#385AB0"/>
<path d="M56.7931 58.936H12.1035V94.8092H56.7931V58.936Z" fill="#B0D3F0"/>
<path d="M28.8621 21.1748H3.49697C3.14504 21.1748 2.88994 20.8331 2.98676 20.4894L10.5505 3.82919C11.4964 1.74288 13.554 0.406128 15.8201 0.406128L32.5862 0.406128L28.8621 21.1748Z" fill="#416CD9"/>
<path d="M81 21.1748H54.931V0.406128L77.2759 0.406128L81 21.1748Z" fill="#416CD9"/>
<path d="M41.8965 47.6077C34.6978 47.6077 28.8621 41.6905 28.8621 34.3912V21.1748H54.931V34.3912C54.931 41.6905 49.0953 47.6077 41.8965 47.6077Z" fill="#6194F2"/>
<path d="M94.0345 47.6077C86.8357 47.6077 81 41.6905 81 34.3912V21.1748H106.87C106.98 21.1748 107.069 21.2654 107.069 21.3768V34.3912C107.069 41.6905 101.233 47.6077 94.0345 47.6077Z" fill="#6194F2"/>
<path d="M54.931 21.1748H28.8621L32.5862 0.406128L54.931 0.406128V21.1748Z" fill="#669CFF"/>
<path d="M106.408 21.1748H81L77.2759 0.406128L94.042 0.406128C96.3081 0.406128 98.3657 1.74288 99.3135 3.83107L106.888 20.531C106.978 20.8538 106.739 21.1748 106.408 21.1748Z" fill="#669CFF"/>
<path d="M15.8276 47.6077C8.62882 47.6077 2.79309 41.6905 2.79309 34.3912V21.7072C2.79309 21.4127 3.02771 21.1748 3.31819 21.1748H28.8621V34.3912C28.8621 41.6905 23.0263 47.6077 15.8276 47.6077Z" fill="#385AB0"/>
<path d="M67.9655 47.6077C60.7668 47.6077 54.931 41.6905 54.931 34.3912V21.1748H81V34.3912C81 41.6905 75.1643 47.6077 67.9655 47.6077Z" fill="#385AB0"/>
<path d="M97.7586 55.1599H67.9655V109.914H97.7586V55.1599Z" fill="#385AB0"/>
<path d="M94.0345 58.936H71.6897V106.138H94.0345V58.936Z" fill="#B0D3F0"/>
<path d="M90.3104 89.145C89.2806 89.145 88.4483 88.3011 88.4483 87.257V81.5928C88.4483 80.5487 89.2806 79.7047 90.3104 79.7047C91.3401 79.7047 92.1724 80.5487 92.1724 81.5928V87.257C92.1724 88.3011 91.3401 89.145 90.3104 89.145Z" fill="white"/>
<path d="M32.5862 72.1525C33.0629 72.1525 33.5396 71.9675 33.9027 71.5993L41.351 64.0471C42.0791 63.3088 42.0791 62.1156 41.351 61.3773C40.6229 60.6391 39.4461 60.6391 38.718 61.3773L31.2697 68.9296C30.5417 69.6678 30.5417 70.8611 31.2697 71.5993C31.6328 71.9675 32.1095 72.1525 32.5862 72.1525Z" fill="white"/>
<path d="M32.5862 81.5928C33.0629 81.5928 33.5396 81.4078 33.9027 81.0396L37.6269 77.2635C38.3549 76.5253 38.3549 75.332 37.6269 74.5938C36.8988 73.8555 35.722 73.8555 34.9939 74.5938L31.2697 78.3699C30.5417 79.1081 30.5417 80.3014 31.2697 81.0396C31.6328 81.4078 32.1095 81.5928 32.5862 81.5928Z" fill="white"/>
<path d="M38.7124 70.812C38.3754 71.1689 38.1724 71.6616 38.1724 72.1525C38.1724 72.6434 38.3754 73.1343 38.7124 73.4742C39.0644 73.831 39.5299 74.0406 40.0345 74.0406C40.5186 74.0406 41.0028 73.8329 41.3566 73.4931C41.6917 73.1343 41.8966 72.6434 41.8966 72.1525C41.8966 71.6616 41.6917 71.1689 41.3566 70.812C40.6676 70.1134 39.4014 70.1134 38.7124 70.812Z" fill="white"/>
<path d="M42.4422 69.7113C42.8053 70.0794 43.282 70.2645 43.7587 70.2645C44.2353 70.2645 44.712 70.0794 45.0751 69.7113L50.6613 64.0471C51.3894 63.3088 51.3894 62.1156 50.6613 61.3773C49.9333 60.6391 48.7564 60.6391 48.0284 61.3773L42.4422 67.0415C41.7141 67.7798 41.7141 68.973 42.4422 69.7113Z" fill="white"/>
<path d="M48.0284 70.8177L31.2697 87.8102C30.5417 88.5484 30.5417 89.7417 31.2697 90.4799C31.6328 90.8481 32.1095 91.0331 32.5862 91.0331C33.0629 91.0331 33.5396 90.8481 33.9027 90.4799L50.6613 73.4874C51.3894 72.7491 51.3894 71.5559 50.6613 70.8177C49.9333 70.0794 48.7564 70.0794 48.0284 70.8177Z" fill="white"/>
<path d="M54.391 67.0358C53.7021 66.3373 52.4359 66.3373 51.7469 67.0358C51.4099 67.3927 51.2069 67.8855 51.2069 68.3764C51.2069 68.8673 51.4099 69.3582 51.7469 69.7169C52.0988 70.0567 52.5848 70.2644 53.069 70.2644C53.5531 70.2644 54.0373 70.0567 54.391 69.7169C54.7262 69.3582 54.931 68.8673 54.931 68.3764C54.931 67.8855 54.7262 67.3927 54.391 67.0358Z" fill="white"/>
<path d="M13.9655 109.914H2.7931L1.08745 99.5389C1.00552 99.0404 1.38538 98.5854 1.88441 98.5854H15.8276L13.9655 109.914Z" fill="#CB8252"/>
<path d="M10.2414 77.8167H6.51727V98.5853H10.2414V77.8167Z" fill="#7F6E5D"/>
<path d="M16.1777 69.6603C16.7437 68.2102 17.1478 66.5922 16.8424 65.0458C16.7102 64.3756 16.4086 63.7318 15.9933 63.2239C15.2932 62.3648 14.9878 61.13 15.228 59.9934C15.4552 58.9172 15.3193 57.7088 14.8258 56.744C13.9264 54.9863 12.137 54.0026 10.3587 53.7458C9.05153 53.557 7.60842 53.759 6.64015 54.771L5.48939 55.7792C4.18222 56.4042 3.18042 57.7881 2.89367 59.3609C2.73911 60.2143 2.79498 61.1092 3.03705 61.9362C3.39829 63.1691 3.09849 64.5021 2.40767 65.5386C0.850976 67.8723 0.439459 71.216 1.58649 73.8631C1.73173 74.1992 1.9198 74.5315 2.13953 74.8317C2.8918 75.8569 3.17484 77.2163 2.86015 78.5021C2.78753 78.7966 2.73911 79.0987 2.71118 79.3989C2.58829 80.7715 2.86387 82.146 3.14318 83.4903C3.43367 84.8875 3.79118 86.3961 4.7967 87.2721C6.15973 88.4597 8.13353 87.999 9.69394 87.1834C11.8986 86.0298 13.9395 84.1304 14.7178 81.5249C15.1721 80.005 15.0641 78.2415 14.4553 76.8141C13.8408 75.3717 13.8408 73.6592 14.7308 72.415C15.3248 71.5861 15.7997 70.6307 16.1777 69.6603Z" fill="#24AE5F"/>
</g>
</g>
<defs>
<filter id="filter0_d_149_329" x="-3.06891" y="0.406128" width="114.138" height="117.508" filterUnits="userSpaceOnUse" color-interpolation-filters="sRGB">
<feFlood flood-opacity="0" result="BackgroundImageFix"/>
<feColorMatrix in="SourceAlpha" type="matrix" values="0 0 0 0 0 0 0 0 0 0 0 0 0 0 0 0 0 0 127 0" result="hardAlpha"/>
<feOffset dy="4"/>
<feGaussianBlur stdDeviation="2"/>
<feComposite in2="hardAlpha" operator="out"/>
<feColorMatrix type="matrix" values="0 0 0 0 0 0 0 0 0 0 0 0 0 0 0 0 0 0 0.25 0"/>
<feBlend mode="normal" in2="BackgroundImageFix" result="effect1_dropShadow_149_329"/>
<feBlend mode="normal" in="SourceGraphic" in2="effect1_dropShadow_149_329" result="shape"/>
</filter>
<clipPath id="clip0_149_329">
<rect width="108" height="109.508" fill="white" transform="translate(0 0.406128)"/>
</clipPath>
</defs>
</svg>
